<svg xmlns="http://www.w3.org/2000/svg" viewBox="0 0 200 200" preserveAspectRatio="xMidYMid slice">
  <defs>
    <radialGradient id="abg" cx="50%" cy="40%" r="70%">
      <stop offset="0%" stop-color="#3a322a"/>
      <stop offset="100%" stop-color="#1c1916"/>
    </radialGradient>
  </defs>
  <rect width="200" height="200" fill="url(#abg)"/>

  <rect x="40" y="145" width="120" height="80" rx="14" fill="#2d5a4f"/>
  <rect x="40" y="145" width="120" height="12" fill="#244c42"/>

  <circle cx="100" cy="95" r="52" fill="#c9a887"/>

  <path d="M 50 95 Q 55 40 100 35 Q 145 40 150 95 L 148 100 Q 130 68 100 70 Q 70 68 52 100 Z" fill="#2a1f18"/>
  <path d="M 60 90 Q 80 70 100 78 Q 120 70 140 90 Q 130 82 100 85 Q 70 82 60 90 Z" fill="#3a2a1e" opacity="0.6"/>

  <ellipse cx="85" cy="100" rx="3" ry="4" fill="#2a1f18"/>
  <ellipse cx="115" cy="100" rx="3" ry="4" fill="#2a1f18"/>

  <path d="M 95 118 Q 100 122 105 118" stroke="#6a4a35" stroke-width="2" fill="none" stroke-linecap="round"/>

  <circle cx="70" cy="110" r="6" fill="#c86a85" opacity="0.25"/>
  <circle cx="130" cy="110" r="6" fill="#c86a85" opacity="0.25"/>
</svg>
