<svg xmlns="http://www.w3.org/2000/svg" viewBox="0 0 160 160" role="img" aria-label="Die Chance Catlock avatar">
  <defs>
    <pattern id="dots" width="4" height="4" patternUnits="userSpaceOnUse">
      <rect width="4" height="4" fill="#b5cf65"/>
      <circle cx="1" cy="1" r=".55" fill="#21351c"/>
    </pattern>
  </defs>
  <circle cx="80" cy="80" r="78" fill="url(#dots)"/>
  <path d="M18 96c19-5 38-7 58-6m50 5c13 3 25 9 33 20M29 112c13-11 28-17 45-18m56 12c16 4 29 12 39 24" fill="none" stroke="#210400" stroke-width="4" stroke-linecap="round"/>
  <path d="M33 74c-9-34 4-58 21-67 18 8 30 18 39 31 32-4 58 2 78 14 6 31-2 62-25 79-29 22-77 18-107-8-13-11-17-28-6-49Z" fill="#ff7068" stroke="#210400" stroke-width="5" stroke-linejoin="round"/>
  <path d="M34 77c23-28 62-43 116-21m-94-8c-11 15-15 31-13 50m46-54c1 17-3 35-12 52m46-33c1 18-2 32-10 43" fill="none" stroke="#65051e" stroke-width="4" stroke-linecap="round"/>
  <path d="M43 86c8-31 33-37 66-30 29 6 52 24 57 56-7 25-40 36-74 35-38-1-70-17-75-42-2-9 5-16 26-19Z" fill="#272829" stroke="#210400" stroke-width="5" stroke-linejoin="round"/>
  <ellipse cx="56" cy="84" rx="22" ry="24" fill="#fff" stroke="#210400" stroke-width="5" transform="rotate(-8 56 84)"/>
  <ellipse cx="105" cy="84" rx="25" ry="23" fill="#fff" stroke="#210400" stroke-width="5" transform="rotate(7 105 84)"/>
  <circle cx="56" cy="84" r="13" fill="#1c0300"/>
  <circle cx="105" cy="84" r="14" fill="#1c0300"/>
  <path d="M48 136c17 12 56 12 86 4 8 5 14 12 19 20H29c5-9 11-17 19-24Z" fill="#3b7d80" stroke="#210400" stroke-width="5" stroke-linejoin="round"/>
  <circle cx="80" cy="143" r="15" fill="#ffd166" stroke="#7a2400" stroke-width="4"/>
  <path d="M72 132c10 1 18 7 23 16m-20-7c8-2 15-1 22 4m-10-15c-4 5-7 10-8 18" fill="none" stroke="#7a2400" stroke-width="2.5" stroke-linecap="round"/>
</svg>
