<svg xmlns="http://www.w3.org/2000/svg" viewBox="0 0 520 650" role="img" aria-label="Generic plush embroidery detail">
  <defs>
    <radialGradient id="cloth" cx="42%" cy="34%" r="72%">
      <stop offset="0%" stop-color="#5b9384"/>
      <stop offset="100%" stop-color="#203c35"/>
    </radialGradient>
    <pattern id="stitch" width="18" height="18" patternUnits="userSpaceOnUse">
      <path d="M0 9h18M9 0v18" stroke="#ede2c8" stroke-opacity=".045" stroke-width="1"/>
    </pattern>
  </defs>
  <rect width="520" height="650" fill="#171411"/>
  <circle cx="260" cy="308" r="210" fill="url(#cloth)"/>
  <circle cx="260" cy="308" r="210" fill="url(#stitch)"/>
  <ellipse cx="184" cy="302" rx="34" ry="42" fill="#100e0c"/>
  <ellipse cx="336" cy="302" rx="34" ry="42" fill="#100e0c"/>
  <circle cx="196" cy="288" r="11" fill="#ede2c8"/>
  <circle cx="348" cy="288" r="11" fill="#ede2c8"/>
  <path d="M226 382q34 34 68 0" fill="none" stroke="#100e0c" stroke-width="10" stroke-linecap="round"/>
  <path d="M162 396q-32 16-64 0M358 396q32 16 64 0" fill="none" stroke="#b05a72" stroke-width="12" stroke-linecap="round" opacity=".5"/>
  <path d="M260 82v448" stroke="#ede2c8" stroke-width="4" stroke-dasharray="10 12" opacity=".5"/>
  <rect x="44" y="518" width="432" height="68" fill="#100e0c" opacity=".75"/>
  <path d="M72 552h160M288 552h160" stroke="#c8892e" stroke-width="3" stroke-dasharray="10 9"/>
</svg>
