<svg xmlns="http://www.w3.org/2000/svg" viewBox="0 0 520 650" role="img" aria-label="Generic teal plush front view">
  <defs>
    <radialGradient id="cloth" cx="38%" cy="30%" r="72%">
      <stop offset="0%" stop-color="#5b9384"/>
      <stop offset="55%" stop-color="#3a6b5e"/>
      <stop offset="100%" stop-color="#203c35"/>
    </radialGradient>
    <radialGradient id="warm" cx="50%" cy="45%" r="65%">
      <stop offset="0%" stop-color="#f2e6c9"/>
      <stop offset="100%" stop-color="#b98a64"/>
    </radialGradient>
    <pattern id="grain" width="12" height="12" patternUnits="userSpaceOnUse">
      <path d="M0 6h12M6 0v12" stroke="#f2e6c9" stroke-opacity=".055" stroke-width="1"/>
    </pattern>
    <filter id="soft">
      <feDropShadow dx="0" dy="14" stdDeviation="10" flood-color="#000" flood-opacity=".42"/>
    </filter>
  </defs>
  <rect width="520" height="650" fill="#171411"/>
  <rect width="520" height="650" fill="url(#grain)"/>
  <ellipse cx="260" cy="596" rx="150" ry="30" fill="#080706" opacity=".55"/>
  <g filter="url(#soft)">
    <path d="M178 100c-22-58-11-88 18-92 30-4 55 42 70 93h-88Z" fill="url(#cloth)"/>
    <path d="M342 100c22-58 11-88-18-92-30-4-55 42-70 93h88Z" fill="url(#cloth)"/>
    <path d="M205 52c18 20 29 51 36 86M315 52c-18 20-29 51-36 86" fill="none" stroke="#c8892e" stroke-width="8" stroke-linecap="round" opacity=".72"/>
    <circle cx="260" cy="194" r="112" fill="url(#cloth)"/>
    <ellipse cx="260" cy="408" rx="132" ry="156" fill="url(#cloth)"/>
    <ellipse cx="260" cy="390" rx="76" ry="95" fill="url(#warm)" opacity=".32"/>
    <path d="M260 298v225" stroke="#ede2c8" stroke-width="3" stroke-dasharray="8 8" opacity=".55"/>
    <ellipse cx="221" cy="194" rx="15" ry="18" fill="#100e0c"/>
    <ellipse cx="299" cy="194" rx="15" ry="18" fill="#100e0c"/>
    <circle cx="226" cy="188" r="5" fill="#ede2c8"/>
    <circle cx="304" cy="188" r="5" fill="#ede2c8"/>
    <path d="M248 226q12 13 24 0" fill="none" stroke="#100e0c" stroke-width="5" stroke-linecap="round"/>
    <ellipse cx="205" cy="236" rx="18" ry="10" fill="#b05a72" opacity=".48"/>
    <ellipse cx="315" cy="236" rx="18" ry="10" fill="#b05a72" opacity=".48"/>
    <path d="M142 358q-45 28-38 88 6 50 54 63" fill="none" stroke="#3a6b5e" stroke-width="52" stroke-linecap="round"/>
    <path d="M378 358q45 28 38 88-6 50-54 63" fill="none" stroke="#3a6b5e" stroke-width="52" stroke-linecap="round"/>
    <ellipse cx="205" cy="557" rx="48" ry="23" fill="#203c35"/>
    <ellipse cx="315" cy="557" rx="48" ry="23" fill="#203c35"/>
    <rect x="338" y="360" width="54" height="32" rx="4" fill="#c8892e"/>
    <path d="M348 376h34" stroke="#100e0c" stroke-opacity=".45" stroke-width="2"/>
  </g>
</svg>
